<svg width="78" height="78" viewBox="0 0 78 78" fill="none" xmlns="http://www.w3.org/2000/svg">
<g id="&#240;&#159;&#166;&#134; icon &#34;profile circled&#34;">
<path id="Vector" d="M39 3C19.1177 3 3 19.1177 3 39C3 58.8821 19.1177 75 39 75C58.8821 75 75 58.8821 75 39C75 19.1177 58.8821 3 39 3Z" stroke="#D9D9D9" stroke-width="4.75" stroke-linecap="round" stroke-linejoin="round"/>
<path id="Vector_2" d="M11.1756 61.8445C11.1756 61.8445 19.2001 51.6 39 51.6C58.8 51.6 66.8248 61.8445 66.8248 61.8445" stroke="#D9D9D9" stroke-width="4.75" stroke-linecap="round" stroke-linejoin="round"/>
<path id="Vector_3" d="M39 39C44.9649 39 49.8 34.1649 49.8 28.2C49.8 22.2354 44.9649 17.4 39 17.4C33.0352 17.4 28.2 22.2354 28.2 28.2C28.2 34.1649 33.0352 39 39 39Z" stroke="#D9D9D9" stroke-width="4.75" stroke-linecap="round" stroke-linejoin="round"/>
</g>
</svg>
